<svg id="Calque_1" data-name="Calque 1" xmlns="http://www.w3.org/2000/svg" viewBox="0 0 449.04 449.04"><defs><style>.cls-1{fill:none;stroke:#1d1d1b;stroke-miterlimit:10;stroke-width:2px;}</style></defs><path class="cls-1" d="M315,396V261c0-117,81-99,81-54,0,27-27,45-27,45,9,9,54-27,54,27C423,360,315,306,315,396Z" transform="translate(-81.48 -171.48)"/><path class="cls-1" d="M297,396V261c0-117-81-99-81-54,0,27,27,45,27,45-9,9-54-27-54,27C189,360,297,306,297,396Z" transform="translate(-81.48 -171.48)"/><path class="cls-1" d="M315,396V531c0,117,81,99,81,54,0-27-27-45-27-45,9-9,54,27,54-27C423,432,315,486,315,396Z" transform="translate(-81.48 -171.48)"/><path class="cls-1" d="M297,396V531c0,117-81,99-81,54,0-27,27-45,27-45-9-9-54,27-54-27C189,432,297,486,297,396Z" transform="translate(-81.48 -171.48)"/><path class="cls-1" d="M306,387H171c-117,0-99-81-54-81,27,0,45,27,45,27,9-9-27-54,27-54C270,279,216,387,306,387Z" transform="translate(-81.48 -171.48)"/><path class="cls-1" d="M306,405H171c-117,0-99,81-54,81,27,0,45-27,45-27,9,9-27,54,27,54C270,513,216,405,306,405Z" transform="translate(-81.48 -171.48)"/><path class="cls-1" d="M306,387H441c117,0,99-81,54-81-27,0-45,27-45,27-9-9,27-54-27-54C342,279,396,387,306,387Z" transform="translate(-81.48 -171.48)"/><path class="cls-1" d="M306,405H441c117,0,99,81,54,81-27,0-45-27-45-27-9,9,27,54-27,54C342,513,396,405,306,405Z" transform="translate(-81.48 -171.48)"/></svg>